<?xml version="1.0" encoding="UTF-8"?>
<svg width="22px" height="14px" viewBox="0 0 22 14" version="1.1" xmlns="http://www.w3.org/2000/svg" xmlns:xlink="http://www.w3.org/1999/xlink">
    <!-- Generator: Sketch 46.2 (44496) - http://www.bohemiancoding.com/sketch -->
    <title>behance</title>
    <desc>Created with Sketch.</desc>
    <defs></defs>
    <g id="Alfredo" stroke="none" stroke-width="1" fill="none" fill-rule="evenodd">
        <g id="behance" transform="translate(-1.000000, -5.000000)" fill-rule="nonzero">
            <rect id="Rectangle-4-Copy-5" fill-opacity="0" fill="#FFFFFF" x="0" y="0" width="24" height="24"></rect>
            <path d="M21.1664489,6.83331354 L14.7498515,6.83331354 L14.7498515,5 L21.1664489,5 L21.1664489,6.83331354 Z M22.7485985,15.9998812 C22.3434362,17.188785 20.8887019,18.7498515 18.0727323,18.7498515 C15.2549294,18.7498515 12.972454,17.164952 12.972454,13.5478244 C12.972454,9.9636964 15.103681,8.12121629 17.9828999,8.12121629 C20.8080361,8.12121629 22.5331841,9.75469865 22.9099301,12.1783391 C22.9814293,12.6421675 23.0098456,13.2673274 22.9970125,14.1399846 L15.6390086,14.1399846 C15.758174,17.0833695 18.8317241,17.1759518 19.8446298,15.9998812 L22.7485985,15.9998812 Z M15.7031746,12.3332541 L20.2543754,12.3332541 C20.1581264,10.9151861 19.2130533,10.2991928 17.9838166,10.2991928 C16.6399978,10.2991928 15.8965891,11.0031852 15.7031746,12.3332541 Z M6.92710266,18.7388516 L1,18.7388516 L1,5.01924979 L7.37351451,5.01924979 C12.393127,5.09349899 12.4884593,10.0095292 9.86682091,11.3496814 C13.03937,12.504669 13.1457022,18.7388516 6.92710266,18.7388516 Z M3.7499703,10.4999406 L7.03526816,10.4999406 C9.33424333,10.4999406 9.69907272,7.7499703 6.74927125,7.7499703 L3.7499703,7.7499703 L3.7499703,10.4999406 Z M6.8583534,13.2499109 L3.7499703,13.2499109 L3.7499703,16.0145477 L6.81252056,16.0145477 C9.61290699,16.0145477 9.44149217,13.2499109 6.8583534,13.2499109 L6.8583534,13.2499109 Z" id="Shape" fill="#241433"></path>
        </g>
    </g>
</svg>