<?xml version="1.0" encoding="UTF-8"?>
<svg width="20px" height="15px" viewBox="0 0 20 15" version="1.1" xmlns="http://www.w3.org/2000/svg" xmlns:xlink="http://www.w3.org/1999/xlink">
    <!-- Generator: Sketch 46.2 (44496) - http://www.bohemiancoding.com/sketch -->
    <title>email</title>
    <desc>Created with Sketch.</desc>
    <defs></defs>
    <g id="Alfredo" stroke="none" stroke-width="1" fill="none" fill-rule="evenodd">
        <g id="email" transform="translate(-2.000000, -4.000000)">
            <rect id="Rectangle-4-Copy-7" fill-opacity="0" fill="#FFFFFF" fill-rule="nonzero" x="0" y="0" width="24" height="24"></rect>
            <g id="Shape" transform="translate(2.000000, 4.000000)">
                <g id="path-1-link" transform="translate(1.000000, 1.000000)" fill="#241433">
                    <path d="M0,0 L0,13.5 L18,13.5 L18,0 L0,0 Z M16.1385,1.5 L9,7.28475 L1.8615,1.5 L16.1385,1.5 Z M1.5,12 L1.5,3.13725 L9,9.21525 L16.5,3.13725 L16.5,12 L1.5,12 Z" id="path-1"></path>
                </g>
                <path d="M0.89999999,1 L1,0.89999999 L19,0.89999999 L19.1,1 L19.1,14.5 L19,14.6 L1,14.6 L0.89999999,14.5 L0.89999999,1 Z M16.8562645,2.60000001 L3.14373553,2.60000001 L10,8.1560378 L16.8562645,2.60000001 Z M2.60000001,12.9 L17.4,12.9 L17.4,4.34700475 L10.0629609,10.2929412 L9.9370391,10.2929412 L2.60000001,4.34700475 L2.60000001,12.9 Z" stroke="#241433" stroke-width="0.200000018"></path>
            </g>
        </g>
    </g>
</svg>