<?xml version="1.0" encoding="UTF-8"?>
<svg width="20px" height="15px" viewBox="0 0 20 15" version="1.1" xmlns="http://www.w3.org/2000/svg" xmlns:xlink="http://www.w3.org/1999/xlink">
    <!-- Generator: Sketch 46.2 (44496) - http://www.bohemiancoding.com/sketch -->
    <title>email copy</title>
    <desc>Created with Sketch.</desc>
    <defs>
        <path d="M3,5 L3,18.5 L21,18.5 L21,5 L3,5 Z M19.1385,6.5 L12,12.28475 L4.8615,6.5 L19.1385,6.5 Z M4.5,17 L4.5,8.13725 L12,14.21525 L19.5,8.13725 L19.5,17 L4.5,17 Z" id="path-1"></path>
    </defs>
    <g id="Alfredo" stroke="none" stroke-width="1" fill="none" fill-rule="evenodd">
        <g id="email-copy" transform="translate(-2.000000, -4.000000)">
            <rect id="Rectangle-4-Copy-7" fill-opacity="0" fill="#FFFFFF" x="0" y="0" width="24" height="24"></rect>
            <g id="Shape" fill-rule="nonzero">
                <use fill="#FFFFFF" fill-rule="evenodd" xlink:href="#path-1"></use>
                <path stroke="#FFFFFF" stroke-width="0.200000018" d="M2.89999999,5 L3,4.89999999 L21,4.89999999 L21.1,5 L21.1,18.5 L21,18.6 L3,18.6 L2.89999999,18.5 L2.89999999,5 Z M18.8562645,6.60000001 L5.14373553,6.60000001 L12,12.1560378 L18.8562645,6.60000001 Z M4.60000001,16.9 L19.4,16.9 L19.4,8.34700475 L12.0629609,14.2929412 L11.9370391,14.2929412 L4.60000001,8.34700475 L4.60000001,16.9 Z"></path>
            </g>
        </g>
    </g>
</svg>