<?xml version="1.0" encoding="UTF-8"?>
<svg width="15px" height="15px" viewBox="0 0 15 15" version="1.1" xmlns="http://www.w3.org/2000/svg" xmlns:xlink="http://www.w3.org/1999/xlink">
    <!-- Generator: Sketch 46.2 (44496) - http://www.bohemiancoding.com/sketch -->
    <title>linkedin</title>
    <desc>Created with Sketch.</desc>
    <defs></defs>
    <g id="Alfredo" stroke="none" stroke-width="1" fill="none" fill-rule="evenodd">
        <g id="linkedin" transform="translate(-5.000000, -4.000000)" fill-rule="nonzero">
            <rect id="Rectangle-4-Copy-6" fill-opacity="0" fill="#FFFFFF" x="0" y="0" width="24" height="24"></rect>
            <path d="M8.1125,5.5625 C8.1125,6.425625 7.41875,7.125 6.5625,7.125 C5.70625,7.125 5.0125,6.425625 5.0125,5.5625 C5.0125,4.7 5.70625,4 6.5625,4 C7.41875,4 8.1125,4.7 8.1125,5.5625 Z M8.125,8.375 L5,8.375 L5,18.375 L8.125,18.375 L8.125,8.375 Z M13.11375,8.375 L10.00875,8.375 L10.00875,18.375 L13.114375,18.375 L13.114375,13.125625 C13.114375,10.206875 16.8825,9.968125 16.8825,13.125625 L16.8825,18.375 L20,18.375 L20,12.043125 C20,7.118125 14.42375,7.2975 13.11375,9.721875 L13.11375,8.375 Z" id="Shape" fill="#241433"></path>
        </g>
    </g>
</svg>