<?xml version="1.0" encoding="UTF-8"?>
<svg width="660px" height="240px" viewBox="0 0 660 240" version="1.1" xmlns="http://www.w3.org/2000/svg" xmlns:xlink="http://www.w3.org/1999/xlink">
    <!-- Generator: Sketch 52.1 (67048) - http://www.bohemiancoding.com/sketch -->
    <title>Logo Mari</title>
    <desc>Created with Sketch.</desc>
    <g id="Logo-Mari" stroke="none" stroke-width="1" fill="none" fill-rule="evenodd">
        <path d="M60.3942931,97.4223485 C68.481666,85.1407214 78.2035749,79 89.5603113,79 C107.111631,79 120.188889,86.524546 128.792477,101.573864 C130.685267,98.9791537 132.965183,96.2547491 135.632296,93.4005682 C138.299408,90.5463872 142.55812,87.432782 148.40856,84.0596591 C154.259,80.6865362 160.281422,79 166.476005,79 C180.241746,79 191.770382,84.3190756 201.062257,94.9573864 C210.354132,105.595697 215,123.196216 215,147.75947 L215,193.166667 C215,197.145222 214.870948,200.129094 214.61284,202.118371 C214.354733,204.107649 213.537404,206.399608 212.16083,208.994318 C209.923897,213.664796 203.299234,216 192.286641,216 C181.44612,216 174.821456,213.578307 172.412451,208.734848 C171.207949,206.140139 170.476655,203.848179 170.218547,201.858902 C169.96044,199.869624 169.831388,196.885752 169.831388,192.907197 L169.831388,147.5 C169.831388,132.450682 164.497243,124.926136 153.828794,124.926136 C147.806282,124.926136 143.719639,126.915384 141.568742,130.893939 C139.417845,134.872495 138.342412,140.494282 138.342412,147.75947 L138.342412,193.166667 C138.342412,197.318203 138.213361,200.345319 137.955253,202.248106 C137.697145,204.150893 136.879817,206.399608 135.503243,208.994318 C133.094238,213.664796 126.38354,216 115.370947,216 C104.530426,216 97.9057622,213.578307 95.4967575,208.734848 C94.2922551,206.140139 93.5609611,203.848179 93.3028534,201.858902 C93.0447458,199.869624 92.9156939,196.885752 92.9156939,192.907197 L92.9156939,147.5 C92.9156939,132.450682 87.5815492,124.926136 76.9130999,124.926136 C66.588794,124.926136 61.4267185,132.450682 61.4267185,147.5 L61.4267185,193.426136 C61.4267185,197.404692 61.2976667,200.388563 61.039559,202.377841 C60.7814514,204.367119 59.9641227,206.659078 58.5875486,209.253788 C56.0064722,213.751285 49.295774,216 38.4552529,216 C27.6147318,216 20.9900682,213.664796 18.5810636,208.994318 C17.3765612,206.399608 16.6452672,204.150893 16.3871595,202.248106 C16.1290519,200.345319 16,197.318203 16,193.166667 L16,101.833333 C16,97.8547781 16.1290519,94.8709064 16.3871595,92.8816288 C16.6452672,90.8923512 17.4625958,88.6868808 18.8391699,86.2651515 C21.4202464,81.5946736 27.5287024,79.2594697 37.1647211,79.2594697 C46.8007399,79.2594697 53.0812651,80.8162723 56.0064851,83.9299242 C58.9317051,87.0435762 60.3942931,91.5410059 60.3942931,97.4223485 Z M331.107345,93.5066667 C332.139365,83.8355072 338.933396,79 351.489642,79 C358.197774,79 363.185797,79.5180901 366.453861,80.5542857 C369.721925,81.5904814 372.000935,83.4037966 373.29096,85.9942857 C374.580986,88.5847749 375.354989,90.8730059 375.612994,92.8590476 C375.870999,94.8450893 376,97.8241071 376,101.79619 L376,192.462857 C376,196.43494 375.870999,199.413958 375.612994,201.4 C375.354989,203.386042 374.623986,205.674273 373.419962,208.264762 C371.011915,212.754943 365.120888,215 355.746704,215 C346.372521,215 340.094492,213.834297 336.912429,211.502857 C333.730367,209.171417 331.881359,205.760657 331.365348,201.270476 C325.001224,210.423538 314.380175,215 299.501883,215 C284.623592,215 270.820528,208.178481 258.092279,194.535238 C245.364029,180.891995 239,165.047074 239,147 C239,128.952926 245.407029,113.151179 258.221281,99.5942857 C271.035532,86.0373925 285.096596,79.2590476 300.404896,79.2590476 C306.253011,79.2590476 311.585036,80.2952277 316.40113,82.367619 C321.217224,84.4400104 324.57124,86.3828481 326.463277,88.1961905 C328.355314,90.0095329 329.903321,91.7796739 331.107345,93.5066667 Z M283,148.394286 C283,154.177172 285.278072,159.390453 289.834286,164.034286 C294.390499,168.678118 299.910444,171 306.394286,171 C312.878128,171 318.266645,168.634309 322.56,163.902857 C326.853355,159.171405 329,153.958124 329,148.262857 C329,142.567591 326.940973,137.266691 322.822857,132.36 C318.704741,127.453309 313.184797,125 306.262857,125 C299.340918,125 293.733355,127.453309 289.44,132.36 C285.146645,137.266691 283,142.6114 283,148.394286 Z M494.616915,80.8533835 C497.89388,81.8909826 500.610271,83.6635213 502.766169,86.1710526 C504.922067,88.678584 506,92.6992205 506,98.2330827 C506,103.766945 504.361542,109.819516 501.084577,116.390977 C497.807612,122.962439 493.064708,126.24812 486.855721,126.24812 C483.751228,126.24812 480.776134,125.556398 477.930348,124.172932 C475.084563,122.789467 471.333357,122.097744 466.676617,122.097744 C462.019877,122.097744 457.665029,123.740585 453.61194,127.026316 C449.558852,130.312047 447.532338,134.28945 447.532338,138.958647 L447.532338,193.432331 C447.532338,197.409794 447.402986,200.392847 447.144279,202.381579 C446.885571,204.370311 446.066342,206.661641 444.686567,209.255639 C442.09949,213.751902 435.373189,216 424.507463,216 C416.228814,216 410.278625,214.53009 406.656716,211.590226 C403.897167,209.169161 402.344944,205.451153 402,200.43609 L402,101.864662 C402,97.8871982 402.129352,94.9041453 402.38806,92.9154135 C402.646767,90.9266818 403.379762,88.7218166 404.587065,86.3007519 C407.00167,81.6315556 413.727971,79.2969925 424.766169,79.2969925 C435.11448,79.2969925 441.582077,81.2856944 444.169154,85.2631579 C446.066344,88.030089 447.014925,90.8834439 447.014925,93.8233083 C447.877285,92.6127759 449.127687,91.1428658 450.766169,89.4135338 C452.404652,87.6842019 455.897154,85.3496388 461.243781,82.4097744 C466.590408,79.4699101 471.290195,78 475.343284,78 C479.396372,78 482.80264,78.2161633 485.562189,78.6484962 C488.321739,79.0808292 491.33995,79.8157843 494.616915,80.8533835 Z M526,101.494297 C526,97.5297647 526.131427,94.5564104 526.394286,92.5741445 C526.657144,90.5918786 527.401899,88.3079977 528.628571,85.7224335 C531.081917,81.2407887 537.916134,79 549.131429,79 C557.542899,79 563.500935,80.4651311 567.005714,83.3954373 C569.984777,85.8086306 571.561904,89.5145504 571.737143,94.513308 C571.912382,96.2370175 572,98.7363588 572,102.011407 L572,192.505703 C572,196.470235 571.868573,199.44359 571.605714,201.425856 C571.342856,203.408121 570.510483,205.692002 569.108571,208.277567 C566.830465,212.759211 560.083866,215 548.868571,215 C537.828516,215 531.081917,212.673027 528.628571,208.019011 C527.401899,205.433447 526.657144,203.192658 526.394286,201.296578 C526.131427,199.400497 526,196.384051 526,192.247148 L526,101.494297 Z M569.108571,55.1657143 C567.881899,57.6190599 565.603826,59.3714233 562.274286,60.4228571 C558.944745,61.474291 554.520028,62 549,62 C543.479972,62 539.055255,61.474291 535.725714,60.4228571 C532.396174,59.3714233 530.074292,57.5314417 528.76,54.9028571 C527.445708,52.2742726 526.657144,49.952391 526.394286,47.9371429 C526.131427,45.9218947 526,42.8990678 526,38.8685714 C526,34.8380751 526.131427,31.8152482 526.394286,29.8 C526.657144,27.7847518 527.401899,25.5504885 528.628571,23.0971429 C531.081917,18.3656906 537.916134,16 549.131429,16 C560.171484,16 566.830465,18.3656906 569.108571,23.0971429 C570.510483,25.7257274 571.342856,28.047609 571.605714,30.0628571 C571.868573,32.0781053 572,35.1009322 572,39.1314286 C572,43.1619249 571.868573,46.1847518 571.605714,48.2 C571.342856,50.2152482 570.510483,52.5371297 569.108571,55.1657143 Z M639.545455,172.502674 C642.515166,175.472386 644,181.586406 644,190.84492 L644,191.893048 C644,196.085582 643.868985,199.186264 643.606952,201.195187 C643.344918,203.20411 642.427815,205.606047 640.855615,208.40107 C638.235281,213.467049 631.640873,216 621.072193,216 C610.503512,216 603.51606,214.34048 600.109626,211.02139 C596.703192,207.702301 595,201.413594 595,192.15508 L595,191.106952 C595,187.089106 595.131015,184.032096 595.393048,181.935829 C595.655082,179.839562 596.484841,177.481297 597.882353,174.860963 C600.502687,169.620295 607.097095,167 617.665775,167 C628.234456,167 635.527609,168.834206 639.545455,172.502674 Z" id="mari." fill="#000000"></path>
    </g>
</svg>